/* XPM */
static char *e650637eacda4024eb66585c892860dd0ZXenz0ACBMnKyXc[] = {
/* columns rows colors chars-per-pixel */
"64 64 241 2 ",
"   c #27140C",
".  c #2D1B13",
"X  c #2A1814",
"o  c #311D15",
"O  c #321F17",
"+  c #2C0E04",
"@  c #34221A",
"#  c #3B261D",
"$  c #2A1429",
"%  c #311C27",
"&  c #250D38",
"*  c #2A133A",
"=  c #30193A",
"-  c #250F2C",
";  c #3B2825",
":  c #382338",
">  c #3F3934",
",  c #190F23",
"<  c #45261A",
"1  c #452C23",
"2  c #493429",
"3  c #57382C",
"4  c #483A36",
"5  c #563C32",
"6  c #653F32",
"7  c #5B453B",
"8  c #594438",
"9  c #4B443E",
"0  c #66473A",
"q  c #764839",
"w  c #2D1543",
"e  c #331A49",
"r  c #371B54",
"t  c #3B244C",
"y  c #382246",
"u  c #3B2454",
"i  c #422B46",
"p  c #4B354C",
"a  c #523A46",
"s  c #42255C",
"d  c #452A5C",
"f  c #452B58",
"g  c #4D3557",
"h  c #54365C",
"j  c #452563",
"k  c #4B2C64",
"l  c #4D2D69",
"z  c #482765",
"x  c #522E6C",
"c  c #522D65",
"v  c #4E3263",
"b  c #4F316C",
"n  c #4F3862",
"m  c #523363",
"M  c #53336C",
"N  c #5A3B6C",
"B  c #583969",
"V  c #562E72",
"C  c #553373",
"Z  c #5B3575",
"A  c #5C3B74",
"S  c #5C3679",
"D  c #5E3A7A",
"F  c #563577",
"G  c #623B7B",
"H  c #613A77",
"J  c #401E5A",
"K  c #574844",
"L  c #5A4957",
"P  c #674D42",
"I  c #6B5546",
"U  c #78574A",
"Y  c #675A55",
"T  c #795C56",
"R  c #714E49",
"E  c #68625C",
"W  c #7D6759",
"Q  c #5C4569",
"!  c #5E4276",
"~  c #644A69",
"^  c #644A74",
"/  c #64447B",
"(  c #644776",
")  c #755B78",
"_  c #6D5670",
"`  c #6E6964",
"'  c #786C67",
"]  c #7A736D",
"[  c #76706B",
"{  c #78677C",
"}  c #7B7672",
"|  c #7E7974",
" . c #825D4E",
".. c #865F50",
"X. c #8B6A5B",
"o. c #866456",
"O. c #946B5B",
"+. c #896E66",
"@. c #887469",
"#. c #997768",
"$. c #837B75",
"%. c #857E79",
"&. c #8C7A76",
"*. c #947C75",
"=. c #976F61",
"-. c #A67A6B",
";. c #A77A6B",
":. c #86817C",
">. c #8B827C",
",. c #98867A",
"<. c #9A806F",
"1. c #A88676",
"2. c #B48777",
"3. c #AF8876",
"4. c #C1907F",
"5. c #673E82",
"6. c #644481",
"7. c #6C5A83",
"8. c #7F6A8B",
"9. c #89738C",
"0. c #87718D",
"q. c #8D8984",
"w. c #8C8681",
"e. c #928A85",
"r. c #948E89",
"t. c #9A8B86",
"y. c #9D948D",
"u. c #97918C",
"i. c #998698",
"p. c #9E9994",
"a. c #9B9794",
"s. c #A28E86",
"d. c #A2948D",
"f. c #A8968B",
"g. c #B99684",
"h. c #A38E98",
"j. c #A39591",
"k. c #A49B94",
"l. c #AA9D94",
"z. c #A59E99",
"x. c #AB9D9A",
"c. c #A8949E",
"v. c #ACA39C",
"b. c #ABA198",
"n. c #B1A59C",
"m. c #B4A99E",
"M. c #BBAB9E",
"N. c #B7A393",
"B. c #A899B1",
"V. c #AE9AA9",
"C. c #ABA6A2",
"Z. c #AFA8A2",
"A. c #A8A7A8",
"S. c #B1A7A1",
"D. c #B4ABA3",
"F. c #BAAEA3",
"G. c #B6AEA9",
"H. c #B9AEAA",
"J. c #B6A5AE",
"K. c #BBB1A6",
"L. c #BDB3AB",
"P. c #BFB9AE",
"I. c #B7B0A8",
"U. c #B5A5B7",
"Y. c #BBB8B6",
"T. c #9481A1",
"R. c #C39382",
"E. c #C2B3A5",
"W. c #C2B6AC",
"Q. c #C4B9AE",
"!. c #CABCAE",
"~. c #C8B7AE",
"^. c #C4BCB2",
"/. c #CDBEB2",
"(. c #CABDB2",
"). c #C4B6B7",
"_. c #CBB9B3",
"`. c #C5C0B6",
"'. c #CDC1B2",
"]. c #CDC1B5",
"[. c #C6C1B8",
"{. c #CCC4BB",
"}. c #CEC8BC",
"|. c #D2C3B5",
" X c #D2C5BA",
".X c #D4C9BD",
"XX c #DACBBD",
"oX c #D8C6BA",
"OX c #BCB7C1",
"+X c #C7BBCC",
"@X c #CEC9C3",
"#X c #CBCBCC",
"$X c #C6C3C5",
"%X c #D4CCC3",
"&X c #DACEC3",
"*X c #D4CEC9",
"=X c #D3C7C5",
"-X c #D7D1C6",
";X c #DAD1C5",
":X c #D6D1CB",
">X c #DBD4CB",
",X c #DCD8CE",
"<X c #CEC8D4",
"1X c #D2C6D3",
"2X c #D3D4D4",
"3X c #DBD6D3",
"4X c #DDDBD4",
"5X c #DCDCDB",
"6X c #D6D6D9",
"7X c #CFD0D1",
"8X c #E4D6CC",
"9X c #E3D7CA",
"0X c #E2DCD4",
"qX c #E9DED2",
"wX c #E2DED9",
"eX c #E5DBD9",
"rX c #E0CECC",
"tX c #DEE1DB",
"yX c #E3E3DD",
"uX c #EAE4DD",
"iX c #E8E2D6",
"pX c #F3E6DA",
"aX c #DDDCE2",
"sX c #DBCFE3",
"dX c #E2DFE3",
"fX c #E6D9EA",
"gX c #E5E4E2",
"hX c #EAE6E3",
"jX c #E7E8E3",
"kX c #EBEAE5",
"lX c #E6E5E9",
"zX c #EAE6EA",
"xX c #EDECE9",
"cX c #E7E9E8",
"vX c #F1ECE6",
"bX c #F2ECEA",
"nX c #F3E5E5",
"mX c #ECE5F1",
"MX c #F6EBF4",
"NX c #F7F1EF",
"BX c #DFE1E0",
/* pixels */
"L.L.L.L.L.L.L.L.L.W.L.W.W.P.W.).W.W.Q.Q.!.^.!.^.'.Q.'.'.'.'.'.|./.!././._._./.~.E.~.!.E.W.E.K.M.M.M.M.n.m.N.n.b.l.N.f.l.f.f.f.d.",
"L.L.P.W.P.L.W.W.L.W.P.).^.W.^.W.^.^.^.!.!.(.(.^.'.`.`.'.'.'.'.!./.oX/././._./._.!.!.E.E.W.E.E.K.E.M.n.M.n.n.n.b.n.f.x.l.l.l.f.l.",
"P.P.W.P.L.W.P.^.).W.^.W.W.^.^.^.^.^.^.^.(.(.!.'.'.'.'.|.'.'.|.|./.!./.|./.|.~.!.E.!.E.E.E.L.K.F.E.M.M.m.n.N.n.x.l.b.l.f.b.f.b.m.",
"P.P.P.^.W.P.P.W.W.^.^.^.^.^.^.^.^.(.(.(.(.(.'.'.'.'.'.|.XXXX|.'./.oX|./././././.'.Q.'.E.~.E.E.E.E.M.M.m.n.M.n.n.n.b.l.l.b.b.m.y.",
"P.P.P.P.P.P.W.P.^.^.^.^.(.).^.^.).{.[.(.(.].'.].'.|..XoXN.,.E.'.XX'.|.|./././.!.!.Q.!.'.Q.E.E.E.E.M.M.M.m.M.n.x.b.b.b.f.b.m.t.[ ",
"P.P.`.P.P.Q.P.^.^.).(.^.(.(.(.[.(.(.[.{.].].|.|.'..XE.W # # 2 8 W '.|.'.|.'.|.'.'.!.!.E.Q.W.E.E.E.M.M.M.m.n.n.N.b.b.b.b.b.>.' ' ",
"^.P.`.Y.`.^.^.^.^.(.[.(.(.(.[.{.(. X].].{.].].|.XXF.8 . o @ # @ # <.oX|.|.|.'.!.!.!.!.!.!.E.E.E.E.E.M.m.M.n.n.n.n.l.b.k.:.E E E ",
"P.^.P.`.Q.`.^.^.^.).).(.{.(.(.{./.{.{.{.|.{.|.{.XXW   . . @ @ @ # 9 E.oX|.!.|.|.'.!.!.!.!.!.~.E.E.E.E.M.F.m.m.n.n.n.b.y.E ` E E ",
"`.Y.Y.[.^.`.^.^.`.`.(.{.{.(.{.{.{. X X X{. X X.XL.2 X X O O     @ # y.XX|. X|./.'./.(.!.~.~.~.W.E.E.K.K.m.m.m.n.n.m.b.y.$.[ [ ` ",
"`.[.[.^.[.[.[.[.^.].[.{.{.{.{. X X X X{. X X|.;Xe.; X O O X         E XX|.|.].|.]./.(.(.(.!.~.E.E.E.E.M.K.m.m.n.n.n.v.k.:.| | | ",
"`.[.[.[.[.{.[.{.[.{.{.{. X{.{. X X=X X.X X.X{.&X' @ O O % X O . . @ 2 K.XX|.'.|.|././.(.(.~.~.~.E.E.K.K.F.m.m.m.n.m.v.k.q.:.:.| ",
"[.[.[.[.[.{.{.[.{.{.{. X{.{.=X=X X&X=X X%X%X XoXI < 1 1 O O O o . # o ,.9XoX|.'.|.|.(.(.(.^.~.~.P.E.K.K.K.m.m.m.n.S.n.z.r.w.:.:.",
"[.[.[.$X{.$X{.@X{.{.{..X%X.X%X X.X&X=X.X.X.XXX|.K 5 5 3 < o # o   # @ I XX.XXX|.|.].'.'.(.(.!.~.'.P.K.K.F.F.m.m.n.D.Z.z.a.q.q.q.",
"}.}.{.}.{.{.}.{.@X X.X.X%X%X%X%X=X*X&X*X-X|.9X!.0 7 5 5 < < < o o # 2 8 oXXX|.XX X|.'.'./.!.Q.~.E.E.K.K.F.F.m.m.m.D.Z.b.a.r.q.q.",
"{.{.{.}.@X{.@X{.%X.X%X%X%X%X%X%X&X*X-X-X-X.X9XN.5 8 0 0 < < 3 3 o # 8 8 '.XX|.|.|.|.'.'./.(.!.!.P.P.E.K.K.m.m.m.m.D.I.v.p.a.u.q.",
"@X@X{.@X{.%X%X=X%X%X%X%X%X%X%X%X-X:X-X-X-XXX9X,.3 0 I U 0 3 0 3 < 2 8 8 E.XXXX|.|.|.|.'.'.(.!.^.'.P.E.E.K.K.K.D.m.D.Z.v.v.a.u.q.",
"@X$X@X@X@X@X*X%X%X:X-X*X-X-X&X-X>X-X-X-X>X&X>X,.8 7 8 8 0 U  .0 # 8 8 8 M.;XXX.X X|.|.|.'.Q.'.Q.E.Q.E.E.K.K.M.F.D.D.I.v.v.b.u.q.",
"@X@X@X@X*X@X@X*X%X-X:X-X-X>X>X;X>X:X>X-X>X&X8Xf.7 7 2 o <  . .<     8 8 !.;X.XXXoXoX|.|.'.'.'.Q.P.E.P.E.P.K.K.m.m.F.I.v.C.b.a.r.",
"*X@X*X*X@X*X:X:X:X:X:X:X>X>X>X>X>X>X>X,X8X&XqXF.7 T @...q #. .3 q 0 < I '.;XXXXXXX.X X|.'.'.Q.'.!.P.E.E.K.K.F.F.D.D.K.m.Z.C.p.u.",
":X*X*X*X:X:X:X:X:X:X>X>X>X>X>X,X>X>X>X9X>X&XqXE.U <.U 3 W <. .0 0 0 8 I ;XXXXXXXoX.X X|.|.'.'.`.'.P.P.P.K.K.I.F.K.K.K.m.D.Z.p.a.",
":X:X:X:X2X2X,X,X>X3X3X,X,X,X,X,X4X9X,X,X3X,XqXE.W @.0 0 ..;. .q 8 2 0 W 9XXXXXXX=XXX.X X].|.(.!.P.E.P.P.K.K.K.K.F.I.I.m.Z.D.z.a.",
"4X3X6X4X4X4X4X4X,X4X4X4XtX,X4X4X0X0X4X4X8X8XqX~.<.1.=.O.O.3.....W 0 0 X.9X;XXX,X&X.X.X X|.|.'.!.'.P.P.E.P.K.K.K.I.D.P.m.Z.Z.z.a.",
"4X6X4X4X5X4X5X5X4XwXtX4XiXtXyXiX0XiX4X4X0X8XqX!.=.3.3.2.2.2.O. ...o.W @.9XXX-X;X-X%XXX.X X{.'.(.'.P.'.P.P.P.K.K.F.I.P.C.Z.Z.A.a.",
"4X4X4X4X4XtX4XtXyXwXyXiXyXiXuXyXiXuXiXiXiX9XqX|.<.4.2.2.2.2.O...#.<.W <.9X;X9X-X-X&X.X.X{.].].(.P.P.E.P.K.K.K.K.I.K.P.D.C.G.C.p.",
"tX4XtX2XtXtXtXyXtXyXyXyXyXuXuXuXhXuXyXuXuX0XqX|.1.N.R.4.2.2.=. .#.<.W @.9X;X>X>X-X-X&X.X X|.{.(.`.Q.W.P.L.L.L.K.I.P.P.n.Z.I.v.z.",
"4X4XtXtXtXtXtXyXyXyXyXyXuXuXyXuXuXhXuXuXyXiXiXXXf.2.R.4.2.;... .#.#.U <.qX9X>X,X>X-X%X.X X].[.^.Q.Q.Q.P.P.L.K.K.P.m.P.I.Z.I.A.a.",
"tXtX4XtXtXtXtXtXyXyXyXyXuXjXyXjXuXpXuXuXuXiXiX9XN.g.R.4.O.q 8 0 #.#.I f.pX-X>XiX,X>X&X*X{.{.{.'.`.Q.Q.P.P.K.K.K.m.K.P.D.C.Z.A.b.",
"tX2XtXtXtXtXtXjXyXyXjXjXjXjXjXpXuXuXnXhXuXiXiXqXM.3.R.2.3.;.q q O.X.P Q.pX0XiX0X0X9X>X&X.X{.].`.`.Q.Q.W.P.L.K.K.P.K.P.m.I.v.A.p.",
"tX2XtXtXtXtXjXtXyXjXuXjXjXjXpXjXkXkXvXjXkXuXiXuX'.3.2.2.2.2.#.O.X.U +.8XqXeXiXeX0X0X,X;X.X{.{.^.Q.Q.W.P.P.K.K.K.I.K.P.I.A.Z.C.v.",
"tXtXtXtXtXjXtXjXyXjXjXjXkXkXkXkXpXkXpXjXhXuXiXiXpXN.3.3.;.O. .q o.I M.pX0X0XwXtXwX0X8X&X=X{.[.^.`.!.^.W.K.P.P.K.F.F.P.I.v.p.| E ",
"tXtXtXtXtXjXtXtXjXyXjXkXkXkXkXkXkXvXpXpXnXhXiX0XpXN.3.1.q q q 3 U I oXpXeXhXgXeX0X8X9X;X.X].[.(.^.W.P.W.P.K.K.K.I.K.P.Z.Z.> , > ",
"tXtXtXtXjXtXjXjXjXjXjXjXkXkXvXkXkXkXkXvXhXuXgXwXpX|.1.<.-.=.U  .U W 9XpXeXwXwX5X4X8X,X-X{.[.[.(.^.^.^.P.P.P.I.K.K.I.I.I.u.E r.I.",
"tXjXtXjXtXjXyXjXjXjXcXkXkXkXvXvXvXvXkXvXvXyXyXqXpX9X,.<.;.o...o.0 ,.pXpXuXeXyX5X4X3X>X=X{.[.^.^.^.^.W.W.P.Y.F.D.L.F.F.L.r.z.P.D.",
"jXtXBXtXjXtXjXyXjXjXkXkXkXkXkXvXvXvXvXkXkXuXuXuXqX0X1.<.1.;.=.o.0 l.bXqXuXqXyXeX4X:X*X.X{.(.^.^.^.^.).P.L.L.H.F.D.L.L.D.y.e.r.} ",
"tXBXtXjXtXjXjXjXjXjXkXkXkXkXvXxXvXvXbXkXvXkXwXuXMXrX,.<.3.3.-.+.7 <.kXuXuXyXwX4X4X:X-X}.^.(.).^.^.^.L.L.L.L.H.L.F.D.F.D.u.Y K > ",
"tXjXtXjXtXjXjXjXjXjXkXkXxXxXxXvXvXvXbXnXvXkXnXbXU.+.1.X.<.1.;.T 8 9 ).NXuXiX0X4X,X:X@X}.^.^.P.^.W.W.W.W.P.L.I.D.D.D.L.D.p.E Y E ",
"jXjXyXyXjXyXjXjXjXcXkXxXvXxXxXxXkXxXxXxXkXuXbX).L L f.=.o.=.o.3 7 ; _ U.3XiXiX4X>X-X%X}.W.P.E.).^.P.W.Y.L.H.G.G.D.I.I.n.z.[ [ ` ",
"yXyXyXgXyXyXjXjXxXjXkXkXkXxXvXxXvXxXvXxXbXzXhX{ g i s.<.+.R 5 3 K % % K U.nXiX>X:X*X}.[.W.L.P.W.P.P.W.Y.L.L.L.G.D.m.m.I.v.[ [ ` ",
"hXyXyXgXyXjXjXjXkXkXxXkXxXxXxXbXxXxXxXxXnXbX2XQ g : &.1.+.o.6 3 7 ; : g i.bXwX>X-X-X}.`.W.L.L.P.L.W.P.P.P.L.G.I.I.I.I.D.v.[ } [ ",
"yXyXhXyXjXjXjXkXjXcXkXxXxXxXvXxXxXkXkXNXhXMXB.L h p T f.&.T P R K p p p 8.zX0X4X:X}.}.`.L.L.L.E.L.E.L.L.Y.H.G.I.D.D.Z.Z.A.[ } [ ",
"hXyXwXhXgXgXhXkXkXjXkXxXxXkXxXxXvXkXxXkXMX1X^ ^ B $ 4 s.*.#.R T a i p i ~ fXfXeX&XXX.X(.E.G.W.H.L.L.L.L.L.L.H.H.D.D.D.D.b.} | ] ",
"gXuXuXdXgXhXjXzXzXxXkXcXbXxXkXxXvXkXcXNXMX0.Q ( B = % *.s.@.T T p - y = i { V.+XsX+X(.(.H.G.H.L.L.L.).W.Y.G.L.G.D.D.S.D.b.| | } ",
"wXuXgXuXgXzXkXlXlXxXxXkXxXcXxXxXkXjXNX<X8.B A ! ! : $ +.9.+.) a 4 = $ * ~ ~ B ) J.=X=X).H.H.F.H.L.W.L.Y.L.L.G.G.D.D.C.D.z.| :.} ",
"hXdXdXhXgXgXkXjXkXcXkXzXkXxXxXxXvXNXU.^ B N v M N i = a s.&.~ i e - * t h H ~ _ ~ J.+X).G.F.F.L.L.L.Y.P.G.Y.G.G.D.C.S.D.z.| w.} ",
"gXgXgXgXgXgXkXlXkXlXzXcXzXxXcXxXMXi.Q B ! A M k k t = % L ) h h e - & f H N H ( ( 0._._.H.G.F.G.L.).H.L.L.H.H.G.D.S.C.D.b.%.w.} ",
"gXgXgXgXyXgXgXlXgXlXgXkXzXcXcXmXB.~ ^ M A A B l x f y % i h B m = - e B N N G G ( B 9._.F.D.F.H.L.L.L.L.L.H.Y.G.D.S.m.D.z.w.w.} ",
"gXgXgXyXgXgXgXlXgXlXlXzXcXlXxX<X) ! / c M H x M Z l e i B d c f = * i A c H H 5.G ( _ E.F.m.D.D.L.H.L.L.Y.H.H.G.D.S.m.C.b.:.q.} ",
"gXwXgXgXyXgXgXgXcXgXgXcXgXlXcXi.! ! 6.l M Z A C M m ^ h c J s f & e s M V H G G / ( ~ c.E.v.S.D.F.H.P.U.L.H.H.D.D.S.C.v.b.9.r.| ",
"gXgXgX5XjXtXgXlXgXBXlXcXBXcXlX8.^ ! 6.b z D D C A m 0.Q d l x d u t k x H G H G / / H 9.W.n.D.S.D.F.H.H.D.I.L.D.S.D.v.S.z.%.e.$.",
"gXgXwXgXjXBXgXlXgXlXlXgXBXcXsX7.! F 6.b z D D S D B Q d m l Z d u h k Z H G H ( / H c 0.J.l.n.n.m.D.F.H.I.I.D.C.Z.v.x.S.z.>.e.$.",
"gXBXgXgXtXgXlXBXgXlXgXgXgXmX<X^ 6.F 6.F z A D S D N t t m l M s f g c G H H H G / m c +.J.x.n.n.S.D.D.D.D.D.D.m.v.S.C.x.x.%.w.&.",
"BX5XgXyXtXBXlXlXdXgXlXBXjXmXOXQ 6.b 6.b z F G D D M y y l c l d y t M Z H H G G / k c _ J.x.l.n.x.S.G.D.D.D.D.m.Z.z.k.C.x.$.e.$.",
"5XBX5XyXyXgXlXlXzXBXcXcXBXmXOXv 6.b F F j 5.5.F D M t t n v l k e y D Z S G G G D d N ~ V.N.x.l.n.x.S.S.S.b.p.e.q.b.p.v.k.} w.%.",
"5XgXlXlXtXgXaXlXlX6XBXlXgXmXB.v 6.F b F j j 5.V D M u y d b x d w f A Z G G H G A d B h c.x.l.l.l.x.n.v.S.y.` > K r.v.b.v.%.%.%.",
"aXBXlX#X2X7X7X#X<X#XaXaXlXmX9.M F F b b j F F 5.S M u e d l b s & h N Z S G G G Z j B m h.n.f.l.l.l.x.b.S.z.%.9 ` w.k.k.k.$.9.>.",
"5XaX#Xp.Y.a.Y.a.$X#XlXlXBXmX0.v b 6.j j j F 5.F Z b t e s v b f w h H Z Z G G G M J M h 9.x.l.l.k.k.x.v.v.e.%.L | :.k.k.l.$.>.>.",
"6XtXY.A.Y.A.OXY.#X#XaXdXlXsX7.A j b l b j F 5.F F k u u u v k u w Z V Z Z H H H l z B d 9.x.j.j.d.l.k.b.b.p.p.] a.w.p.p.k.$.>.>.",
"6X2X#X$X#X$X#X$X+X#XgXdXlX<X^ A j l b j j 6.b 5.C b u u r k k r e B Z Z Z H G G k s M h 9.x.j.f.d.k.k.l.v.b.b.| u.>.y.k.k.$.>.$.",
"6X7XOXY.OXY.OX$X[.#XdXaXlX+X^ 6.j r F z j F F F F l u ^ u v n w r N Z H S S S G z k x h +.V.s.d.d.d.p.k.p.b.b.:.r.q.p.k.k.] ,.>.",
"7X7XOX$X#X7X6X6X6X5XlXaXmXOX! 6.j r j b j F F 6.F j u 7.v d k e d Z H Z Z S S G s k M m ( c.h.f.d.d.k.p.z.p.b.>.q.e.y.p.k.] ,.' ",
"7X7XtX2XtXtXaXBXgXBXBXaXmXB.N 6.b r r b j V F F C z u u y k e u c Z Z Z Z G Z G s d x m _ c.h.j.d.d.d.k.k.k.b.>.:.r.u.p.d.@.,.| ",
"7X7X2X2X2X6X6XaX5X6XaXaXlXT.C 6.F r w l z V F F x z r , w d e u M Z Z Z Z G G Z s k x m ~ h.j.y.y.t.s.d.k.d.p.r.:.q.,.d.y.] ,.y.",
"#X#X7X7X2X2X6X6X6X6XaX6XcX8.Q 6.l J r b z 5.F F b j r w * u e w V Z Z Z Z Z Z V s d c m ~ h.j.s.d.s.y.d.d.p.k.r.:.>.>.d.y.@.,.,.",
"$X#X#X7X#X7X7X2X2X2X6X2X6X7.! F 5.j r z j l F F b s e w w s e & x Z Z Z Z V Z V J k l m h h.d.s.y.t.t.d.y.y.d.u.| >.>.y.y.| >.>."
};
