/* XPM */
static char *_36e65b5db3547c19f9d17e996c8fbc1csucDXwtSfqcvX6a[] = {
/* columns rows colors chars-per-pixel */
"64 64 225 2 ",
"   c #01010D",
".  c #08040B",
"X  c #170B0C",
"o  c #050512",
"O  c #080616",
"+  c #060915",
"@  c #0A0916",
"#  c #070B19",
"$  c #0B0C1A",
"%  c #080518",
"&  c #110E1C",
"*  c #190E14",
"=  c #0D111D",
"-  c #1C1314",
";  c #12121E",
":  c #1C151B",
">  c #141117",
",  c #1E100D",
"<  c #25130E",
"1  c #241514",
"2  c #2B1A15",
"3  c #241A1C",
"4  c #2A1B1B",
"5  c #271714",
"6  c #311E1C",
"7  c #210F0F",
"8  c #2D211E",
"9  c #33221D",
"0  c #3A211E",
"q  c #0D0E20",
"w  c #0F1222",
"e  c #131422",
"r  c #161924",
"t  c #1B1B25",
"y  c #1C1D29",
"u  c #171728",
"i  c #100F21",
"p  c #201F24",
"a  c #1F2029",
"s  c #22222C",
"d  c #2A2425",
"f  c #332323",
"g  c #392622",
"h  c #342924",
"j  c #3B2B25",
"k  c #342B2B",
"l  c #3D2D2B",
"z  c #352629",
"x  c #3F3128",
"c  c #252532",
"v  c #2B2B35",
"b  c #2D2D39",
"n  c #282634",
"m  c #382F35",
"M  c #36353B",
"N  c #2F313E",
"B  c #432E2A",
"V  c #482C26",
"C  c #43332C",
"Z  c #49342C",
"A  c #51362D",
"S  c #4B3531",
"D  c #4A3A33",
"F  c #453836",
"G  c #553B35",
"H  c #5C3E34",
"J  c #533D3A",
"K  c #5B3C38",
"L  c #653D32",
"P  c #54443B",
"I  c #59453C",
"U  c #66463E",
"Y  c #744439",
"T  c #353541",
"R  c #423E43",
"E  c #474346",
"W  c #5C4B44",
"Q  c #544845",
"!  c #5D5049",
"~  c #524D52",
"^  c #565457",
"/  c #494956",
"(  c #6A4C44",
")  c #644C48",
"_  c #784D43",
"`  c #63544B",
"'  c #675448",
"]  c #76554A",
"[  c #675956",
"{  c #775A52",
"}  c #786459",
"|  c #6F615E",
" . c #5A5A66",
".. c #676566",
"X. c #786B65",
"o. c #797779",
"O. c #706E71",
"+. c #85554C",
"@. c #875E52",
"#. c #84655C",
"$. c #8B6759",
"%. c #95685C",
"&. c #866B62",
"*. c #996E63",
"=. c #88776C",
"-. c #93766A",
";. c #987568",
":. c #857A76",
">. c #9B7C72",
",. c #917D76",
"<. c #A17A6E",
"1. c #A5756B",
"2. c #A87D71",
"3. c #97857B",
"4. c #8A8379",
"5. c #AA8776",
"6. c #B48679",
"7. c #777782",
"8. c #898786",
"9. c #978D86",
"0. c #9C938C",
"q. c #999188",
"w. c #9A9695",
"e. c #999696",
"r. c #898995",
"t. c #A58D84",
"y. c #B68E83",
"u. c #AA9689",
"i. c #BC9283",
"p. c #B89687",
"a. c #A49A93",
"s. c #A69A96",
"d. c #B19F95",
"f. c #A9A19C",
"g. c #B7A79B",
"h. c #9C9CA5",
"j. c #9FA0A4",
"k. c #A5A3A3",
"l. c #ABA7A5",
"z. c #B3ACAB",
"x. c #BAAEAC",
"c. c #B6ABA4",
"v. c #BDB2AD",
"b. c #B8B1AA",
"n. c #ADAEB2",
"m. c #B4B2B2",
"M. c #BDB5B2",
"N. c #BEB8B3",
"B. c #BDB9B9",
"V. c #BBB7B8",
"C. c #AEB1B8",
"Z. c #C39C8C",
"A. c #C89B8E",
"S. c #C8A896",
"D. c #C4B7AE",
"F. c #C0B6B4",
"G. c #C3BBB5",
"H. c #C4BDBA",
"J. c #C8BFBA",
"K. c #CABEB4",
"L. c #CCC1B6",
"P. c #C4C1BD",
"I. c #CBC3BC",
"U. c #C6C2B7",
"Y. c #D1C5BD",
"T. c #D3C8BE",
"R. c #D5C8B9",
"E. c #BEBFC3",
"W. c #C1BFC1",
"Q. c #C5C3C1",
"!. c #CBC6C2",
"~. c #C7C8C2",
"^. c #CCCAC5",
"/. c #CECCC9",
"(. c #C7C5C8",
"). c #D1C7C1",
"_. c #D2CBC4",
"`. c #DACEC5",
"'. c #D2CDCA",
"]. c #D8CFC8",
"[. c #D0C7C8",
"{. c #CFD0CB",
"}. c #DAD0C7",
"|. c #D5D1CD",
" X c #DCD3CC",
".X c #DCD8CF",
"XX c #D6D4D1",
"oX c #DAD6D1",
"OX c #DDD9D5",
"+X c #D9D7D8",
"@X c #DDDBDB",
"#X c #C2C4D0",
"$X c #E1D5CD",
"%X c #E3D9CE",
"&X c #E9DDCE",
"*X c #E2D7C6",
"=X c #E2D7D1",
"-X c #E4DBD3",
";X c #EADDD4",
":X c #E1DEDA",
">X c #E6E1D6",
",X c #E9E1D6",
"<X c #E4E1DC",
"1X c #EBE4DB",
"2X c #EDE8DF",
"3X c #F0E7DE",
"4X c #DEDDE1",
"5X c #E2DFE0",
"6X c #E5E4E2",
"7X c #EAE6E2",
"8X c #ECEAE5",
"9X c #ECECEA",
"0X c #E7E6EA",
"qX c #F2EBE4",
"wX c #F1EEEA",
"eX c #F0E7E0",
"rX c #F3F2ED",
"tX c #F8F3EC",
"yX c #F5F4F2",
"uX c #F8F6F3",
"iX c #F7F9F4",
"pX c #F9FAF5",
"aX c #FDFEFD",
"sX c #F6F7FE",
"dX c #EEEEF0",
/* pixels */
"!.Q.!.!.!.!.I.!.I.!.I.^.^._.^.^.T._._._.}._.].].'.|. X|. X X$X X%X=X$X=X=X$X$X$X$X X$X`.}.*X`.`.`.).T.T.J.J.).J.J.F.F.F.F.x.x.x.",
"!.!.!.!.!.^.!.!.).I.T.).)._.^._._._.{._.].].].|.]. X}. X$X X=X X X&X$X;X$X$X$X&X$X$X$X X X X$X`.`.).`.W.Y.Y.J.J.J.G.F.F.F.F.M.x.",
"!.!.!.(.^.I.^.I.^.I.^.^._._._._.'.'.'.'.|. X}. X%X}..X$X X%X`.R.T.`.K.d.K.;X=X$X=X&X=X=X$X X}.`.`.).`.R.).J.Y.J.J.J.F.G.F.F.F.x.",
"[.^.^.^.^.^.^.^.^.^.)._./._.'.'.|.|.}. X X|..X X X X$X$X$XS.D.R.K.R.-.| 2.`.;X;X=X=X=X=X$X$X*X`.`.`.`.T.).).J.!.J.J.J.G.F.F.F.x.",
"(.^.~./.^.^.^.^.^._.'.'.'.'.'.].|.XX XXX X$X$XoX X%X%XR.g.g.d.d.b.u.) ' } f.;X=X=X;X=X=X$X X$X X X`.`.T.).Y.I.J.J.J.J.F.F.F.M.M.",
"^.^.~.{.^.{.^./.'.'.'.'.'.|.|.|.|. XXXoXoXoXoX=X%X%X&XK.K.u.4.3.3.' C I ` t.;X;X=X;X-X=X$X$X$X X X`.`.T.).).).I.J.J.W.H.F.F.F.M.",
"/./.~.~.^./.^.^._./.'.|.|.|.|..XXXXXoXoX=X=X-X=X%X>X.XL.c.) P I I x < Z ` =.$X=X=X;X=X&X=X=X$X$X X}.`.`.).).).!.W.K.J.H.F.F.F.M.",
"/./.{./.{.^.{./.'.'.|.|. X|.|.oXOXoXOXOXOX-X-X-X-X-X,Xf.=.x B C x < 6 C ) ) S.;X&X&X&X;X=X=X=X$X X}.}.`.`.).).I.Y.W.J.J.W.F.F.F.",
"/././.{.^.{.{./.'.|.|.XXXX|.oXOXOXoX=X-X@X-X:X-X>X:X;X0.[ 6 l B < < 2 h P I 4.L.&X&X&X&X-X%X%X$X$X X}.`._.).!.Y.Y.J.Y.J.K.K.K.F.",
"{.{./.{.{.^.|.{.|.|.|.XX.X.XoXOXOX=X-X-X:X-X;X<X-X>X-X0.C 5 z 6 < 8 , < 9 D I 5.R.&X%X&X;X;X&X$X X X}.`.`._.).Y.`.W.W.K.K.W.J.F.",
"{.{.{.{.{.{.|.{.|.|.oXoXoXOXOXOX-X:X:X;X:X:X;X;X1X>X:X:.l 4 z 4 1 3 , , 9 B P } g.*X&X>X=X=X;X%X%X$X X}.`.'.).T.J.R.W.Y.W.G.D.J.",
"{.{.{.{.|.{.{.|.|.|.oXoXOXOXOX@X:X;X:X<X:X1X:X3X-X:XH.[ d C J 4 4 - , < < x C I 5.*X&X,X&X&X;X;X%X%X$X}.}._._._.`.W.R.W.J.J.F.F.",
"{.{.{.{.{.|.|.|.|.XXoXOXOXOX:X<X:X7X;X;X<X<X1X1X1X}.s.P g ) R 6 z 1 - 4 2 9 D C 4.*X&X,X;X;X;X&X%X X$X}.}.'._._.).).I.I.J.J.F.q.",
"{.XX{.{.{.|.|.XXXXoXoXoXOX:X:X:X:X:X5X5X1X1X1X>X%X_.X.x 0 ) S 0 F : 4 , 1 4 0 C } U.%X;X;X,X;X;X%X%X%X X X}._._.^.I.^.!.`.J.c.:.",
"XXXX|./.|.'.|.|.XX.XoXOXOX:X:X<X<X:X<X<X;X7X,X}.D.9.` 9 l ) K V C h - , 1 f 1 d ! U.-X,X3X;X;X,X-X%X$X X X}.}._._.).I.!._.P.M.0.",
"{.{.{.{./.|.|.|..XXX.XOX:X:X<X:X<X<X7X7X1X7X>XL.D.:.C 9 V K ( #.B h , X 5 h 8 9 ! b. X;X;X;X;X;X;X%X%X%X.X}.}._._.'.).!.).J.M.a.",
"{.{./.'.'.'.|.|.{..XOXOX@X<X:X6X6X<X2X<X2X2X.X.XD.X.j B V U &.t.) 6 5 . X d h h P b.%X&X3X,X,X&X-X-X%X%X X}.`.`._._.^.T.^.T.N.f.",
"'.{.'.'./.'.|.|.XX.XOXOX:X:X:X6X<X6X2X2X2X8X>X{.a.^ l B A ( ( { ] 0 6 X X X 3 g D 3.$X;X1X1X,X,X,X&X%X$X$X}.}.|._.^.^.T.^.T.G.l.",
"{.'././.'.'.{.|..XXX.X:X:X:X6X<X8X8X6X2X2X2X2X~.X.[ C g J I V L ] V 0 6 z 1 1 9 2 P D.1X3X&X1X,X>X&X-X%X$X X}.|.].^.T.^.'.).I.b.",
"#X'./.(.[.'.'.|.{.XXOXOX:X:X6X6X6X2X8X8X8X2XrX{.X.Q m l Z ( >.&.*.#.K F l 8 5 0 j D a.,X,X2X3X,X,X>X-X%X$X.X}.}.].'.^.^.).).I.F.",
"/./.^.^./.'.'.'.XXXXOX:X:X<X<X6X7X7X9X8X9X8XrX>X9.E h 4 B &.>.#.#.2.K S 0 6 5 6 j P 0.>X3X,X,X,X>X-X-X&X.X X X'.].'._.^./._.U.H.",
"/.^.^.~.^./.|.'.{..XOX:X:X<X6X2X8X8XwX8X8XrX8X2X8.k 3 5 C &.( L *.1.L K 6 < 5 6 0 P } L.qX1X3X,X,X,X-X%X%X$X X X].'._.'._.'.I.I.",
"/.~.^.^.^./.'.|.{..XOXOX:X<X6X6X6X9X8X8XwXrX9XrXe.h 3 6 S #.] ] 1.1.U ( K 6 2 9 x W :.%X3X,X,X,X,X,X&X-X$X$X X X].'./._.'.'.!.!.",
"~./.~.~.^././.'.{.XX.XOX:X<X6X8X8X9X8XwXwX8X9XiXH.k z 4 G >.<.;.2.2._ _ ] G B j h F D.qX1X3X1X1X,X,X-X=X%X.X X}.].|.'._.'.XXI.!.",
"/.{.~.~.^.{./.{.|.|.OXOX@X<X6X6X8X9X9X9XrXwXrXrX8X..8 0 U 6.u.6.2.6.@.] $.{ Z 8 x P N.qX1X3X1X,X1X>X;X=X=X$XoX X|.].|.'.'..X^.I.",
"~.~.~.~.~.^.^.{.|..XOXOX@X<X6X8X8X9X8XrXwXrXrX9XpXU.h 2 U p.i.Z.6.6.%.@.;.#.P 2 h ` OX3X3X3X2X1X1X;X;X-X-X=X=X X|.|.'.'.'.XX^.^.",
"/.~.~.~.~./././.{.XXOXOX:X<X<X8X8X8XrX8XrXrXrXrXuXOXD 9 ] Z.i.A.*.+.L +.3.=.U 5 k G.tX3X,X1X3X,X1X-X:X-X=X=X=XoX X|.'.'.|..X/.I.",
"~.~.P.Q.I.^./.{.|.XX.X:X:X6X8X8X8XrXrXrXrXrXyXrXtX8XQ 9 $.A.A.A.2.%.Y @.5.-.{ h P }.3X2X3X2X3X1X1X1X;X-X-X=XoX=X.X|.|.|.|.XX|.^.",
"/.~.~.~.~.~././.|.|.OX@X:X<X6X9X9XrXrXrXtXtXiXrXtXaXz.h -.S.A.i.2.1.1.*.<.>.' 9 8 U.tX2X3X2X1X<X>X,X-X-X-X=X=XoXoX|.|.|.{.OX{.P.",
"/.~.~.~.~.~././.|.XXOX@X<X<X6X8X9X9XtXtXtXiXiXiXpXtXrX3.} S.Z.i.6.1.%.*.<.;.} ` ` .XqX2X1X2X8X2X1X-X>X;X-X=X=XoX X|.|.|.{.XX|.^.",
"/.~.~.~.~.^.^./.{.XXOX@X:X6X6X9XrXrXrXtXiXiXiXiXrXaX'.3.=.g.Z.*.+.+.L +.;.-.) 3.qXwX2X3X3X3X7X<X1X>X:X;X-X=X=X=XXX X|.|.{.oX|.P.",
"/.~.~.~.~.~./.{.XX.XOXOX<X6X9X9X9XrXrXrXrXiXiXiXpXiXwXU.5.u.Z.5.1.1.%.@.1.-.I X.2X8XqX3X2X2X7X1X>X-X1X-X-X-XoXoXXX|.|.|.{.oXXX~.",
"/.~.~.~.~.^./.'.{.{.OXOX@X6X6X9XwXwXtXuXuXuXiXpXpXiXpXqXq.u.d.p.2.*.@.%.5.} P 4.1X9XqXqX2X3X2X<X,X1X>X:X-XOXOX.X}.|.|./.|.|.oX!.",
"/.^.~.~.~.^././..XXXOX@X<X<X8X8X9XyXwXtXuXiXpXpXpXiXyXaXq.&.p.5.6.2.;.&.$.} I f.2X8X9X3X3X1X>X1X,X>X-X>X-X.X.X.X|.|.|.|.|..XoX!.",
"/.~.~.^.^.^.'.'.{..XOX@X@X6X8X8X9XrXwXuXuXpXpXpXaXpXaX@X8 I 5.6.A.i.<.*.} X.q.*XwXqX8X8XeXeX>X1X>X>X>XOX:XOX=XoX.X|.|.|.|.|.|.^.",
"/./.^.~.~.^.^./.{.XXOX@X<X6X8X6X9XrXyXuXsXpXpXpXtXaXaXo.- ! ;.5.6.6.<.&.] P 0..X8X8XqX8X2X<X<X>X>X-X:X<X=XOXoX X|.|.|.|.|.|.|.!.",
"{._.~.^.^._.'.|.|.XX+X@X<X6X9X9X9XdXyXyXuXuXpXpXpXpXQ.s 3 Q >.$.5.-.*.{ I C h Q -X8X2X8X<X<X<XOXOXOX-X-XOXoXoXXX{.|.|.'.|.|.|.I.",
"/._.^.^.^.^./.'.|.XXOX@X<X6X6X9XdXdXrXyXiXiXiXpXpXaXO.s t Q t.{ ( _ I Z W P X 8 _.tX<X2X<X:X:XOXoX.X=X=XoXoXoXXX.X|.|.'.|.|.|.^.",
"'./.^.^.'.^.'.'.{.XXOX@X@X6X6X9X9XdXyXyXiXpXiXaXaX0XT v : F u.,.] I A P ` M - 3 w.tX<X:X>XOXOXoX.X XoXoXoXoXoXXX|.|.|.'./.'.|.~.",
"'._.^.^.^.^./.{.|.XXOXOX:X6X9X8XdXwXyXyXiXiXiXpXaX4XT n t m t.5.5.$.] ( [ k - - ^ 9X<X-X-X.X.X X}.'.}..XoXXX X|.]./.'./.'.'.|.~.",
"_.'.[.)./.[.'.'.|.|.XXOX4X6X0X9X9XwXyXrXiXiXiXiXaX4Xb s u t =.p.3.3.{ } | - : > ..9X:X-X.X X].}.].].].'.=XXXXX].XX|./.'.^.'.'.P.",
"'._.).^.[.^.'./.{.|.oX@X@X6X6X9X0XyXrXiXiXiXiXpXaXe.s s y > Q d.5.;.&.=.M X : @ j.iXOXOX.X].T.T.[.).'.].'.].|.|.|.'._./.^.'.|.I.",
"].'.).).^.[.^.'.|.|.XX+X@X6X6X0X9X9XrXyXyXsXyXaX0XN a a y > 1 :.u.3.3.} - @ > @ v j.9X.X}.`.T.).Y.).`.).[.].|.|.|.'./.'.^.^./.I.",
"'.'.).[.!.^.^.'.{.|.XX+X@X6X6X8X9XdXrXrXiXyXsXaXaXO.= = u r > Q u.t.4.h . . . $ ; a 7.{.oX`.T.Y.T.).).[.[.].].|.'.|._./.^.^./.^.",
"'.'.^.[.^.^.[.'.|.|.|.+X4X<X6X9X9X9X9XiXiXyXsXsXh.v = # + @ $ * [ s.! . . + @ $ ; a > E h.'.).!.Y.Y.T.Y.)._.'.].'.'.'.'.).I.'.^.",
"'.[.^.!.!.[.^.'.{.{.XX+X@X<X6X6X0X8XrXrXdXaX#X/ = ; ; + + % o o : ^ > .   + @ @ ; ; a p d o.'.!.J.Y.I.Y.).[.'.].|.'.)././.^.^.^.",
"'.'.^.!.!.^.^.^.{.{.{.XX@X<X6X6X0XdX9X9XsXC.s w a = = = # w o % . . O   . +   $ = ; e t s a O./.I.L.I.T.).`.'.].'.|./.[._.!.I.^.",
"'.[.[.!.!.!.!.!.{.{.XXXX@X4X6X6X0X9X0XiXC.a a u r = = # # # % % % % o O   r T o $ > e ; t s d o.).I.L.Y.[.].[.'.'.'._.^.^.!.!.^.",
"'._.^.!.!.!.!.[.[.'.XX+X+X4X6X6X6X0XiX#Xc r y w w w # = # T u o   + o +   v ~ o @ > ; ; ; a c s l.Y.K.).!._.'.'.].[.).'.(.!.I.(.",
"'.^.^.!.!.!.!.!.[.'.|.XX+X4X5X5X4X9X0X^ r a u w w w w # o  .T o o + o     s n o @ $ = ; ; r s s O._.I.I.).`.[.'.].'.'.^.!.!.I.!.",
"'.[.!.!.W.).!.!.(./.|.+X+X4X4X6X6XdXm.a a u w w = = = = + v b   + o O o o e @ @ @ @ $ ; ; r y y R J.U.L.)._.[.'.|.'.[.^.!.!.~.!.",
"/.).^.W.!.!.W.!.(.'.|.XX+X@X4X5X<XyXo.r a w w w = # # # + O e % o + o @   e & @ @ $ @ = = r t t s s.I.U.I.'.).'.[.[.'.[.!.Q.Q.P.",
"[.^.!.!.J.Q.W.!.[.[.'.XX+X@X4X5X4X4X^ r y q w # # # $ + @ $ $ % o o o + . e $ o @ > $ $ = e u y p O.!.U.U.^.).'.'.^.^.^.!.W.Q.Q.",
"^.^.!.!.!.Q.!.!.[.#X'.XX+X@X@X@X0X/.N r y q w q # = $ $ $   % o o o o o o u @ @ @ @ $ $ $ ; e y t ~ H.U.I.I.!._.^.^.^.^.Q.(.W.W.",
"!.!.!.I.J.!.W.W.(./.|.XX+X+X@X4X0Xn.a e w w q q # # # + o O O o o o o   & t . $ @ % @ @ $ ; & t t m z.H.L.L.P.!.!.!.!.~.(.W.W.!.",
"^.!.W.W.W.P.!.Q.(.[.{.XX+X@X@X@XdX8.a y w q q q # + $ # @ O o o o o o o @ u O o $ @ @ & & i $ u y d e.J.G.U.I.P.I.!.!.(.Q.W.J.W.",
"(.!.Q.Q.!.W.Q.Q.^.^.'.XX+X+X5X+X0X .a t w $ q % $ + @ + $ o O O o o o   @ ; o @ $ O $ $ $ ; $ u y t o.P.N.L.G.U.P.P.U.~.E.E.B.U.",
"!.!.Q.Q.W.Q.Q.Q.!.[.'.XX+X+X4X4X+XE a e $ w # % # $ @ @ O   % % o o o   c s   $ $ O O @ O & i e u > O.U.F.F.G.F.H.!.B.E.~.E.B.B.",
"!.(.W.P.J.Q.H.Q.Q.(.'.XX+X:X+X0XE.c s e # q # # # $ $ o O @ % e   O @   N s @ a   y T & $ $ $ e u & ~ G.v.D.F.F.H.P.P.E.E.V.B.V.",
"(.~.(.Q.J.W.[././.XXXX+X:X+X+X0Xh.t a e $ $ q # @ + @ o O o %  .o   o   a e e h.r.7.c O & $ e & u ; E N.v.v.F.M.M.l.e.8.8.V.B.N.",
"!.E.~.~.Q.Q./.Q.!.#X(.[.W.[.4X0X7.a t = % $ $ % $ + @ @ @ o @  .;   o o $ o o 7...o # $ @ $ $ i u e m x.x.b.D.v.m.k.O.R ^ l.N.N.",
"~.H.(.H.Q.Q.V.e.z.9.l.q.W.'.5X5X^ r t = O $ % @ @ @ . @ o O O n $       @ o @     > % O $ $ O & i ; k l.b.D.x.x.N.l.q.^ 8.e.H.M.",
"~.E.Q.E.Q.B.l.8.w.w.e.h.E.[.5XXXT r u $ o % @ @ @ + . @ o   o u c o   .     o @ @ o $ O o O @ & e e 3 a.F.x.b.b.z.w.8...e.8.m.b.",
"P.Q.P.P.W.W.m.l.z.z.V.z.W.[.5XW.s r r $ o O $ o o @ + + @ @   e b +   o o   $   @ o o $   O O $ i e > 9.v.c.x.b.l.m.n.8.z.k.c.v."
};
