/* XPM */
static char *_721b681a36548c8a9d47a5b7a8d31c5ehriv6fz5tmrXKfu[] = {
/* columns rows colors chars-per-pixel */
"64 64 243 2 ",
"   c #27180D",
".  c #291B12",
"X  c #392518",
"o  c #2E2B29",
"O  c #312D2D",
"+  c #3E2B24",
"@  c #32312F",
"#  c #343131",
"$  c #3B3838",
"%  c #352F31",
"&  c #462A1A",
"*  c #473528",
"=  c #533B2C",
"-  c #57392B",
";  c #483C36",
":  c #593E34",
">  c #502F25",
",  c #66312D",
"<  c #544132",
"1  c #5B4436",
"2  c #57463B",
"3  c #5D4639",
"4  c #5D493D",
"5  c #564939",
"6  c #64463B",
"7  c #614A3C",
"8  c #664A38",
"9  c #78453D",
"0  c #66503D",
"q  c #72513E",
"w  c #4D4B4A",
"e  c #474544",
"r  c #564A44",
"t  c #58524D",
"y  c #565252",
"u  c #5B5A58",
"i  c #634E44",
"p  c #6C5343",
"a  c #6D554B",
"s  c #66564A",
"d  c #745646",
"f  c #72564B",
"g  c #755D4F",
"h  c #7C5C4B",
"j  c #7B574A",
"k  c #6D5D51",
"l  c #645D58",
"z  c #7A5E52",
"x  c #735F52",
"c  c #774C46",
"v  c #6D6158",
"b  c #746354",
"n  c #7A6254",
"m  c #79675C",
"M  c #7C604B",
"N  c #696765",
"B  c #7B6A65",
"V  c #756B67",
"C  c #79716A",
"Z  c #797573",
"A  c #7C7875",
"S  c #797574",
"D  c #86574E",
"F  c #895D56",
"G  c #955C58",
"H  c #824844",
"J  c #846856",
"K  c #82655B",
"L  c #856A5E",
"P  c #876658",
"I  c #97695D",
"U  c #91725E",
"Y  c #826A64",
"T  c #8D6E63",
"R  c #846E6A",
"E  c #9D6D64",
"W  c #9C6763",
"Q  c #8C7266",
"!  c #8C746B",
"~  c #867469",
"^  c #947463",
"/  c #957A6F",
"(  c #9A786A",
")  c #8D7A72",
"_  c #877A75",
"`  c #927B73",
"'  c #9D7D72",
"]  c #957B75",
"[  c #A16E68",
"{  c #A4756B",
"}  c #A6786A",
"|  c #A57570",
" . c #A27D72",
".. c #AB7D72",
"X. c #B27D75",
"o. c #83827D",
"O. c #8E857C",
"+. c #9D8176",
"@. c #9C837A",
"#. c #99847A",
"$. c #A7826D",
"%. c #A28374",
"&. c #AB8376",
"*. c #A3857A",
"=. c #AB867A",
"-. c #AB8A7D",
";. c #AD8876",
":. c #B2847D",
">. c #B38C7D",
",. c #BA857D",
"<. c #B8927D",
"1. c #8A8884",
"2. c #948C85",
"3. c #988D83",
"4. c #92908C",
"5. c #9C928B",
"6. c #9D9995",
"7. c #999593",
"8. c #A48E83",
"9. c #AB8C82",
"0. c #A58F88",
"q. c #B58A81",
"w. c #B88C81",
"e. c #A39285",
"r. c #A5988D",
"t. c #A8958B",
"y. c #B99185",
"u. c #B29C8D",
"i. c #BC9989",
"p. c #A49E9B",
"a. c #A89F99",
"s. c #A79B93",
"d. c #B89E94",
"f. c #B3A08F",
"g. c #ACA39D",
"h. c #AAA29A",
"j. c #BCA195",
"k. c #B0A69D",
"l. c #B1A89F",
"z. c #B9A497",
"x. c #A6A4A1",
"c. c #ADA5A2",
"v. c #AEAAA4",
"b. c #ADAAA9",
"n. c #B0A7A0",
"m. c #B4ACA4",
"M. c #B2ADAA",
"N. c #B8AFA9",
"B. c #B8AFA6",
"V. c #B7B0A6",
"C. c #BAB1A7",
"Z. c #B6B2AC",
"A. c #BBB4AD",
"S. c #BCB8AF",
"D. c #BBB6B1",
"F. c #BEBAB3",
"G. c #BEBCB9",
"H. c #B5B3B0",
"J. c #C39C8C",
"K. c #C89C8C",
"L. c #CA9C92",
"P. c #C59F92",
"I. c #C9978C",
"U. c #C5A28E",
"Y. c #C6A492",
"T. c #CCA494",
"R. c #CFA99C",
"E. c #C8A799",
"W. c #D5AA9A",
"Q. c #DAB19F",
"!. c #D3AAA0",
"~. c #C7B6A9",
"^. c #DBB4A6",
"/. c #C0B7B2",
"(. c #C2BBB4",
"). c #C4BFBA",
"_. c #CCBFB1",
"`. c #C1ADA4",
"'. c #E4BAAA",
"]. c #EABEB5",
"[. c #E4AFA7",
"{. c #C6C1BC",
"}. c #C9C4BE",
"|. c #CBC6BB",
" X c #D5C8BB",
".X c #ECC3B6",
"XX c #F5CABB",
"oX c #C6C5C1",
"OX c #CAC6C1",
"+X c #C7C8C3",
"@X c #CCCAC4",
"#X c #CECDC8",
"$X c #D3CDC5",
"%X c #D9CCC2",
"&X c #D2CEC9",
"*X c #D8CECD",
"=X c #D1C7C5",
"-X c #CFD0CA",
";X c #D5D1C6",
":X c #D9D2C6",
">X c #D4D3CC",
",X c #DBD5CB",
"<X c #DDDACE",
"1X c #D6D4D0",
"2X c #DCD6D2",
"3X c #DEDBD2",
"4X c #DDDAD2",
"5X c #DFDCD3",
"6X c #DCDCD2",
"7X c #DEDBD4",
"8X c #DEDCD5",
"9X c #DEDBD2",
"0X c #DFDED9",
"qX c #DEDCD9",
"wX c #D7D8D3",
"eX c #E1DCCE",
"rX c #E3D6CE",
"tX c #E1DCD2",
"yX c #E0DDD6",
"uX c #E1DED6",
"iX c #E1DDD2",
"pX c #E1DED9",
"aX c #E3DEDA",
"sX c #E8D9D4",
"dX c #FED2C5",
"fX c #DFE1D6",
"gX c #E4E1D6",
"hX c #E8E2D7",
"jX c #E1E1D9",
"kX c #E3E0D9",
"lX c #E5E2DB",
"zX c #EAE5DC",
"xX c #ECE8DE",
"cX c #F0E9DF",
"vX c #EBE6E2",
"bX c #EDEAE3",
"nX c #E9E6E3",
"mX c #F1ECE5",
"MX c #F3EDE9",
"NX c #FAEEE7",
"BX c #F4F1EC",
"VX c #F9F5F2",
"CX c #FAF6F3",
/* pixels */
").).{.G.{.{.}.}.}.}.+XOXOXOXOX@X+X+X+X+X+X|.+X|.-X@X-X-X>X>X>X-X6X>X-X6X6X6X>X6X4X,X6X6XwX6X4X4X1X>X<X<X;X<X>X;X<X<X<X;X<X-X<X<X",
"G.{.{.{.{.{.}.}.}.}.|.+XOX|.|.OX+X@X@X@X@X+X+X+X+X@X-X-X>X>X>X6X<X>X6X>X>X6X6X6X6X4XwXwXwX6X6X,X,X>X>X<X<X<X<X<X<X;X<X<X<X<X-X<X",
"G.{.{.{.}.}.{.}.}.}.oX|.OX@X@XOX+X@X|.@X@X|.+X+X-X-X-X>X>X>X>X>X>X>X6X6X6X6X6X6X4X6X4X6X6X6X6XwX<X>X<X<X<X>X<X;X<X;X<X<X<X<X<X<X",
"{.G.{.{.).}.}.}.}.}.}.+X@X|.@X@X@X@X-X-X@X@X|.-X|.|.-X-X>X>X>XwX>X6X6XwX6X>XwX6XtX6X6X6X6X6X6X6X<X<X<X<X<X<X<X<X<X<X<X<X<X<X<X<X",
"{.{.oX).{.{.}.}.}.}.+X|.@XOX@X@X@X@X@X|.@X@XOX+X-X-X X<X>X>X>X>X>XwXwXwX6X6X6X6X6X6XtX4X6X6X6X<XwX<X<X6X>X<X<X<X<X<X<X<X<X<X<X<X",
"G.{.{.{.{.{.).}.}.}.|.OX|.$X X@X@X@X@X-X@X@XOX#X-X|.-X-X>X>XwX>X>X<X6X6X6X6X6X6XuXuXtX8XfX6X6X,X<XwX<X6X<X<X<X<X<X<X<X<X<X<X<X6X",
"{.{.{.{.oXoX).}.{.}.OX@X@X@X@X@X#X@X#X@X@X@XOX@X-X-X-X>X>XwX>XwXwXwXwXwX6XfXfX6XuX8XuXuX6X6X4X4X6X6XwX6X<X6X<X>X<X;X<X<X<X<X<X6X",
"{.{.{.oX}.{.}.).}.}.|.@XOXOX@X@X@X#X@X#X#X@X+X@X|.>X-X,XwX>X>XwX>X<XwXwXfX6X6XfXuXuX8X8XuX8X4X4X6X<X6X>X<X>X<X<X<X<X<X6X<X<X<X<X",
"{.{.{.{.{.{.{.{.}.}.OX@X@X$X@X@X#X&X#X&X@XoX+X#X|.-X-X>X<X;X-X,X<X-X<X6X6X6X0X0X0X0XpXpXuXyX8X8X6X6X6X6X<X<X<X<X<X<X<X<X<X<X<X<X",
").{.{.}.oXoX{.{.}.+XOXOX@X@XOX&X#X&X#X&X&XoX@X#X>X-X>X-X-X<X<X;X|.|.;X<XeXgXuX8XpX0XpXpXpXyX8X8X6X<X6X6X<X<X<X<X;X<X<X<X<X<X<X<X",
").).}.).}.{.{.{.}.+X+X@X@X&X@X&X#X&X#X&X#X#X+X+X|.>X;X,X<X|.S.S.O.O.h. X<XeXeXgXpXkX0X0XpXpXpX8X6X6X6X6X<X6X<X<X<X<X<X<XeX<X<X<X",
").).{.{.}.}.oX{.+X+X+X@X@X@X@X&X&X&X&X#X&X#X#X#X-X>X;X Xe.C 0 5 < 5 b r. XeXgXgXpXkX0XpXpXpXyXuXfX6X6X6X6X<X<X<X<X<X<X<X<X<XeX<X",
"=X).).=X{.{.oX{.oX@X@XOX@X@X=X&X-X>X@X-X-X@X@X@X-X X<X5.k b < < X = J J -.|.eXhXuXkXfXkX0X0XpX8XfX6X6X6X6X6X6X<X<X<X<X<X<X<XeX<X",
").).).).{.oX{.oXoXOXOX@X&X@X#X=X-X>X>X>X-X@X-X-X|.<Xf.k b b q 0 q q q J b *. XeXuXuXkXfX0X0X0X0XfX<X6X6X<XfX<X6X<X<X<XeXfXeX<XeX",
").).).).{.{.oX{.oXOX@X=X#X=X#X&X-X-X-X>X-X-X-X;X,Xk.k s M J J U $.$.$.J M b r.eXhXgXkXfX0X0XfXpXfXfXfX6X<X<X<X<X<X<XfX<X<XeX<XfX",
").).).=X{.{.{.{.OXOXOX@X#X#X#X#X-X>X>X>X-X@X-X;XS.b < 5 q U } U.W.K.<.J M 0 k |.hXhXkXkXlXjXkXfXfXeX6X6XfXfXeX<XfX<X<X<X<X<X<XeX",
").=X).).).=X).).OXOX@X@X&X@X#X#X>X>X#X-X-X#X&X$X) < * < D U ;.'..XW.U.} q 0 < e.xXuXaX0XkX6XhXuXeX6XgXeX6XeXeXeXeX6X<XeX<XeXeX6X",
").).=X).).).).=XOXOX@X=X&X@X#X-X-X-X1X1X-X@X:XA.1 * & 1 q U i..X.X.XW.;.M 8 < Y aXhXlXnXkXkXuXuXfXeX6X6XeX<X6X6X<X6XeXtXtXtXeXtX",
").).=X).).).=X).oXOXOX&X@X=X=X#X-X-X1X1X>X@X4X3.* > & 8 D $.U..XXXXX'.U.U 0 3 a  XhXkXkX0XlXgX8X8XgXgX6X6XgX<XgX6XeXtX<XeX6XeXtX",
").).).).).G.=X).oXOXOXOX@X@X&X&X-X>X>X>X-X@X;Xv X X > 8 J $.y.R.'.Q.E.U.-.g 3 2 s.zX0XlXjXfXuXgXgX6XgX6XeX6X<X<XeX6XeXtXtXeXtXeX",
"_.).).}.).).).).}.OXOX@X@X&X&X#X-X>XwX>X-X>X&Xl * 2 4 6 6 i c ( i. .j 6 6 6 2 r O.xXgXkXkX0XuXkX6XuXuX4X6XtX<X6X<XeX<XeXeX6XeXeX",
"}.).).).).=X{.{.}.}.@X@X@X@X@X&X>X:X>X>X#X>X;XC s = X * : 3 : > > > 6 z K f + ; 4.xX0XfXhXuXhX8XtXtXtXuX6XtXgX<XgX<XgXeXtXeXeXeX",
"}.).).}.).).{.=X}.OX@X@X@X@X&X&X-X-X>X,X-X-X;XC ; X X p T Q z = 6 : Y ! e.3.5 $ M.nXfX6XaXuXaXyX8X6XuX6XuX6XtXtX<X<XeXgXeXeXeXeX",
").).).).).).).).}.}.OXOX@X&X#X&X>X>X>X>X#X>XgXO.  . 4 b 3 2 6 i d.L c : a e.s * |.zX6XfXuXuXtXtXuXtX6XtX4XtXtX6XgXeXeXeXfXeXeXeX",
").).).)._.{.).{.{.}.OXOX@X@X=X#X-X>X>X>X#X>X>X/.. * k i * 3 f f ^.9.F f i #.Y r <XkX6XuXkXpXaXaXtXuXtX6XgX6XeXgX<XeXeXgXeXeXeXeX",
")._.).).).).{.{.{.}.OXOX@X&X&X&X#X>X>X>X#X&X,X,Xk 1 K f T / T T .X!.T ' *.9.! +.<XgXuXkXkX8XaXuXuX6XgX6X6X6XfX6X<XeX<XgXeXeXeXfX",
"_.)._./.).).(.).{.}.OX@XOX@X@X&X-X>XwX>X#X>X$XtX0.B *.P F f c q.].].q.D D ' E.d.rX8XaXyXpXpXuXtX6XtXtXgXgXeXfXeXgXtXeXeXeXeXeXeX",
").)././.(.(.{.).{.}.OXOX@X@X&X&X#X>X>X#X#X:X*XrXd.Q 9.q.| | | q.L.[.W.L.P.J.R.E.rX2XyXaXpXuXuXuXuX6X6X6XgX6XeXgXeXtXgX<XeXeXeXeX",
")./.(.(.(._.).).{.{.}.+X+X@X@X#X-X-X1X#X@X&X*XrXd.! 9.=.q.q.| W [ X.<.U.'.^.T.d.eX<XyXyX8XuXgX6X6X6XtX6XfXeXgX6X<XgXeX6XeXeXeXeX",
"/._./._.(.).(.).).{.}.}.OXOX&X@X-X>X1X*X#X#X:X,X`.P =...:.q.E , W D } K.J.!.P.Y.eX4X8XqX8X6XeXeXtXtX6XtX6XeXeX6XeXeX6XeXfXeXeXeX",
"/.(.(.(.(.(.(.).).{.{.}.OX@X@X&X@X#X>X#X#X>X>X:X_.! &.*.=.y.| G [ { >.W.J.T.Y.~.rX1XwX8X8XyX<XgX<XtXeX6X6XgXeXgXgX<XeXeXfXeXfXeX",
"/./.(.(.(.(.).(.).{.|.|.OX@X@X@X>X-X>X@X#X-XOX:X*Xt.' *.-.y...[ [ X.T.Q.J.U.R.%XrX>XwX8X2X4X<XeX6X<X6XeXeX6X6X<XgXeX6XeXeXeXeXeX",
"/.F.~.(.(.(.).(.).).}.oXOXOX+X@X@X#X-X@X@X-X#X;X<X~.+.%.-.D 9 9 H G I } K.Y.~.:X:X,X1X4X4X<X<XeXtX4XtX4X<XtXgXeX<X6XgX<XeXgX<X<X",
"(.S.F.(.(./.(.(.).).{.oXOX+X@X@X#X-X-X@X-X@X;X#X$X X@.+.=.D D D G [ [ X.K.T.~.:X;X:X1X1X,X<XtX2X4XtX4XtXtXeX<XgX6XeXeX6XeX<X<XgX",
"/.S.(./.(.(.(.).(.{.{.}.+XOX@X@X@X-X-X+X+X-X-X-X$X:Xe.` -.q...E [ ,.L.W.T.f.~.:X$X:X>X1XwX<XtXyX4XtXtXtX6XgXeXgXeXeXeXeXeXtXeXeX",
"F.~.S.S.~.(.(.(.).).{.OX|.OX@X+X|.@X-X+X#X+X@X@X XrXu.`  .=...[ W &.I.W.U.f. X:X*X>X,X,X,X<X2X8X4X<XtX2XeXtX6X<X6XgXeX6XtXeX6XeX",
"F././.~.F.F.(.).(.{.{.{.oX}.+X+X@X@X-X|.+X@X@X-X|.:XC.~ +. .<.>.y.U.W.W.<.u. X X:X:X>XwX2X,X4X2XtX,XtX4XeXtX6XtXtX<XtXeXeXtXeXtX",
"S.S.F.S.~.(.(.(.G.(.{.{.+X|.+X+X@X@X+X+X+X@X@X@X X;X X+.L +.y.i.i.U.Y.f.-.f. X;X$X$X>X,X,X,XtX4XtXyX4XtXeXtXtX<XeXtX<XtX<X<XeX<X",
"S.S.F.S././.(.(.(.(.).{.|.{.oX|.+X+X+X+X+X+X+X+X@X|. Xe.L Q (  .;.&.-.-.%.f. X>X$X*X>X>X,X,X2XtXtXtXtXtX4XtX4XtX6XeXeX<XtX<X<XeX",
"S.S.~.S.S./.S.(.G.(.(.(.G.{.oX|.|.|.+X{.}.+X+X+X+X X:X5.L L L ( ( ' $.%.*.k. X-X$X*X,X>X,X4X2XwX2X4X<X4XeXtXeXtXeXtXtXeX<XeXeX6X",
"/.A.A./.A./.A.~.S.{.{.{.{.{.{.oX|.@X}.{.oXoXoX+XOX X$Xs.n n n L Q ^ T Q #.z.$X&X%X%X>X>X,X4XwX4X,XtXtXtX<XtXtXtXeXtXeX<XtXeX<X<X",
"S.A.A././.A.S.S.S.~.S.F.(.F.{.{.}.+X}.G.G.oX{.}.=X}.%Xs.R z g z M K T ' 9.d./.>X&X$X*X:X>X,X,X8X4X<X4X4XtXtX<XeXtX<X<XtXeX<X<XeX",
"S.A.S.A.A.A.S.A.S.S.S.F.(.F.G.{.}.}.{.G.G.oX{.oXoX=Xa.x ) ~ L K ! ] +.%.u.s.).&X$X&X:X>X>X,X,X4X4XtX2XtX<XtX4X<X<XeX<X<X<XeX<X<X",
"A.A.A.A.A.A.A.A.S.S.S.S.F.(.(.{.{.}.G.G.{.G.{.{.{.=Xv r #.! T Q / ' *.8.0.d.:XG.$X>X&X;X:X,X4XwX<X2XtXtX<XtXtXeXeX<X<XeX<X<XeX,X",
"N./.N.A.A.A.A.A.S.S.S.S.F.F.F.G.G.+XG.G.F.G.G.|.).=Xt 2 ` / ! ] *.@.8.0.) =X&X1.&X&X&X;X,X:X,X2X4X4XtX4XeXtXtXeXeXtXeX,X,X4X<X<X",
"/.N.A.A.A.C.C.C.V.V.S.S.F.S.F.G.G.G.S.S.F.G.(.G.).N.V ; _ ] ] ] @.@.] ! 0.NX).y @X$X@X;X>X>X,X2X,XtX4XtX4XeX<X4X<X<XeXeXeX,X<X,X",
"N./.Z.A.Z.C.V.V.V.S.Z.S.S.S.S.F.G.G.G.H.S.F.F.|.7.x.p.; m ` ` R ) ) ) R %XNX6.e ,XyX&X&X:X:X<X,X,XtX<XtX<XtX4XeXeX4XeX<X<X,X,X<X",
"N.N.N.C.C.V.V.V.Z.V.Z.S.S.S.S.F.G.G.S.S.S.S.S.{._ p.=Xr s R ] R R R R ) sXsXo.N 1XMXzX,X$X;X,X,X2X4X4XeXeX4XeXtX,XeX<XeX,X<X<X,X",
"N.N.A.N.C.m.m.m.C.m.V.A.A.D.D.D.G.G.H.H.H.).).oXV S Z 2.C B ! Y B B V _ c.wXN N <XmXbXxX6X;X,X,X,XtX<XtXeX<X<XeX<XeXeX XeX:XeX:X",
"N.N.N.N.C.m.C.m.C.C.V.C.Z.Z.F.D.G.D.M.N.).OXOXoXy o.S _ a.t.B R ~ 3.5.2.6.G.o N zXmXbXmXvXhX<X>X<X2X4XtX<X<XgX<XeX<XeXeXeXeXeX,X",
"m.B.N.B.m.m.m.m.l.V.V.m.Z.Z.H.Z.H.).=X*XrX*X*XoXw 1.1.1.5.m.] V s.s.2.A p.x.o 4.BXbXbXbXxXbXhXhXuX,X<XtX<XeXeX<X<XeXeX,X:XeX:X,X",
"N.B.m.B.m.l.m.l.l.C.m.m.Z.m.M.G.=X*XsXvXaX2XpXG.w 4.4.b.6.n.x.C p.x.2.Z b.Z @ G.BXxXbXbXhXxXzXxXhXtXeX<XeX<X,X<X<X<X:XeXeX:XeX:X",
"m.m.m.l.m.z.l.m.l.m.m.m.M.m.G.,XqXaXaXsXaX2XMXH.e x.b.-X-Xb.Z.7.b.7.2.o.x.w e wXMXbXMXMXkXvXzXzXhXkXgX<X<X<X<X<X<X<X:X<X:X:XeX:X",
"n.m.l.m.n.m.l.l.l.m.v.m.m.).*XqX2X2XvXvXqXqXMXM.e +XwXwXbX0XG.g.H.p.x.H.o.@ N bXbXMXxXmXhXzXbXbXvXhXxXgXeX,X<X<X,X<XeXrXeX:X:X,X",
"n.n.n.l.l.k.k.k.m.v.m.g.(.*XqX2XaXaXvXnXaXaXVXp.@ oXwXqXnXnXH.G.#X@X>X1Xu $ 4.bXxXMXbXBXzXuXbXxXxXhXlXcXgX<X,X<XeX:XeX:X<X,X,X:X",
"n.n.n.n.l.g.k.l.g.l.l.m.*X*X*XyX2XaXnXaXaXaXVXp.w G.qXqXnX1XG.lXqX1XnX{.A u H.bXbXMXcXmXbX6XbXbXlXxXhXmXxXeX,X<X:XeX:XeX:X:XeX:X",
"d.n.n.k.n.g.c.d.g.m.k./.*X*XyX2XaXnXaXaXaXvXVXb.S b.aX2XlX*XOXaX1XqXnXx.1.A *XnXMXMXvXNXvX,XvXmXhXhXeXxXhXxX<X,X,XeX:XeX:X:X:X:X",
"c.n.k.n.n.g.g.c.g.g.N.}.*X*X2XrXaXnXaXaXaXvXVXc.y 7.nXqXaX{.{.nXbXnXnXS A 1.nXaXmXMXvXmXvXtXvXbXjXhXgXhXxXxXgX:XrX,X<X:X:X<X<X:X",
"c.n.n.n.g.g.g.c.g.g.(.}.*X&X2XaXaXaXqXaXvXvXVXb.% o.nXaX2XG.*XvXlXnXqXy % p.MXaXmXNXvXmXmXtXzXNX6XhXhXhXxXxXhX<X:X<X:X:X:X,X:X:X",
"a.g.a.n.n.g.g.g.g.m.).).*X=X2XrXaXaXqXaXvXaXCXM.O S nXlX*XD.vXvXaXMXb.% y *XnXaXMXNXvXxXmXtXaXmXgX<XxXxXxXxXtXhX:X:X:X<X<X:X:X:X",
"g.a.c.c.g.g.g.c.g./.)./.*X=X2X2XaXsXaXaXnXaXVXH.% u aXaX>XN.lXnXlXnXN O N nXaXnXMXMXbXzXcXtXlXbXzX,XzXxXhXzXgXhX,X:X:X,X:X:X:X:X",
"a.g.a.g.g.g.a.g.g.).)./.*X&X*X2X2X2XaXaXaXnXVXG.% y qXaX>Xb.aXvXlX@Xe o 1.MXaXlXMXMXbXhXcXaXpXvXlX,XzXzXhXeXhXhXeX:X,X:X:X:X:X:X",
"a.a.g.c.g.a.g.g.c./.=XD.=X=X*X*X2XsXaXaXnXaXVXoX$ w *XaX@Xv.qXqXnX7.@ # H.bX2XbXmXMXcXhXmXhXtXhXfX,XgXgXhXgXzXhXeX;X:X:X;X,X;X:X",
"a.a.a.a.g.a.a.c.N./.=XM././.*X=X*XaXaXaXaXnXVX=X$ $ =XnXoXb.qXwXqXV @ w qXnX0XnXbXNXmXhXcXtX,X,XgX,XeX<XeXhXhXgXeX;X:X:X;X,X X:X"
};
