/* XPM */
static char *ba1fc1b19c504dbcd8a4944b7571ae6fSqvxPvywXIrsOZid[] = {
/* columns rows colors chars-per-pixel */
"64 64 228 2 ",
"   c #030102",
".  c #0A0605",
"X  c #0B0806",
"o  c #0A0709",
"O  c #0D0B0A",
"+  c #120D0B",
"@  c #1C0E0A",
"#  c #140A05",
"$  c #15120E",
"%  c #1C110D",
"&  c #110F12",
"*  c #151312",
"=  c #1B1412",
"-  c #1D1916",
";  c #1D1B1B",
":  c #171419",
">  c #250E08",
",  c #24120C",
"<  c #2B140D",
"1  c #27150A",
"2  c #231612",
"3  c #221A16",
"4  c #2B1A14",
"5  c #221D1B",
"6  c #2A1C1A",
"7  c #241714",
"8  c #341B14",
"9  c #381C14",
"0  c #35140B",
"q  c #26221E",
"w  c #29231E",
"e  c #392117",
"r  c #34231C",
"t  c #3B241B",
"y  c #1D1B20",
"u  c #221C20",
"i  c #252322",
"p  c #2A2622",
"a  c #2D2924",
"s  c #2E2C29",
"d  c #29262D",
"f  c #322C25",
"g  c #322D2A",
"h  c #392A24",
"j  c #34312C",
"k  c #39342E",
"l  c #343027",
"z  c #363431",
"x  c #3A3633",
"c  c #3C3934",
"v  c #3E3D3B",
"b  c #3B363A",
"n  c #431C13",
"m  c #43251C",
"M  c #48271B",
"N  c #52291D",
"B  c #55321F",
"V  c #432A23",
"C  c #4B2F26",
"Z  c #542D24",
"A  c #48342A",
"S  c #55352C",
"D  c #5C332A",
"F  c #57362B",
"G  c #4D3C34",
"H  c #423E3B",
"J  c #403B37",
"K  c #5C3C32",
"L  c #543D34",
"P  c #633C32",
"I  c #673B33",
"U  c #6A3A31",
"Y  c #43413D",
"T  c #4C443D",
"R  c #56423A",
"E  c #5B443B",
"W  c #5C4437",
"Q  c #6D443B",
"!  c #6C4A3C",
"~  c #674538",
"^  c #75473A",
"/  c #3D3A41",
"(  c #423D41",
")  c #454541",
"_  c #4A4748",
"`  c #564B47",
"'  c #52514D",
"]  c #5D514C",
"[  c #555553",
"{  c #585856",
"}  c #684C40",
"|  c #774D43",
" . c #6B554A",
".. c #7C5A4D",
"X. c #775547",
"o. c #645B55",
"O. c #785B51",
"+. c #796458",
"@. c #64635F",
"#. c #7A7168",
"$. c #7A7774",
"%. c #726A65",
"&. c #835449",
"*. c #85594C",
"=. c #835E53",
"-. c #895F53",
";. c #925E51",
":. c #846254",
">. c #8C6455",
",. c #8E6A5A",
"<. c #88645B",
"1. c #93635C",
"2. c #936A5C",
"3. c #97685A",
"4. c #95725F",
"5. c #A36F5C",
"6. c #976D61",
"7. c #84756A",
"8. c #9B7366",
"9. c #9E7B6B",
"0. c #957568",
"q. c #847D79",
"w. c #887C73",
"e. c #9E7D72",
"r. c #8C6B63",
"t. c #A37463",
"y. c #A37C6C",
"u. c #AB7C6D",
"i. c #A87666",
"p. c #B57E6D",
"a. c #A67D72",
"s. c #A56F65",
"d. c #9D8274",
"f. c #92847A",
"g. c #AA806E",
"h. c #B5816E",
"j. c #A68272",
"k. c #AB8274",
"l. c #AA877A",
"z. c #B38373",
"x. c #B98474",
"c. c #B4897B",
"v. c #BB8B7B",
"b. c #B88877",
"n. c #BE917E",
"m. c #C1927F",
"M. c #C18A77",
"N. c #8A8887",
"B. c #938B87",
"V. c #98928B",
"C. c #9C9894",
"Z. c #A78D84",
"A. c #B38F85",
"S. c #B39387",
"D. c #A59C96",
"F. c #B29C91",
"G. c #BAA59B",
"H. c #AFA196",
"J. c #B5ABA5",
"K. c #BDB3AD",
"L. c #BAB0A7",
"P. c #BBB9B5",
"I. c #B6B5B4",
"U. c #ADA7A2",
"Y. c #C29381",
"T. c #C79A89",
"R. c #C5B4AC",
"E. c #C2B7B1",
"W. c #C5BBB5",
"Q. c #C9BDB7",
"!. c #C4BDBA",
"~. c #C9BFB8",
"^. c #CAB0A7",
"/. c #C6C2BD",
"(. c #CBC3BD",
"). c #C9C0B1",
"_. c #D1C6BD",
"`. c #D2C8BF",
"'. c #D8C5BF",
"]. c #C7C6C2",
"[. c #CBC6C1",
"{. c #CDC9C4",
"}. c #CECDCA",
"|. c #D0C7C0",
" X c #D1CBC5",
".X c #D2CCC6",
"XX c #D3CBC4",
"oX c #D9CFC6",
"OX c #D1CEC9",
"+X c #D5CEC9",
"@X c #D3CECA",
"#X c #D8CFC8",
"$X c #DAD1C6",
"%X c #D5D1CC",
"&X c #D9D3CD",
"*X c #DAD5CC",
"=X c #D6D4D1",
"-X c #DAD6D2",
";X c #DCD9D4",
":X c #DDDDDA",
">X c #E1D4CD",
",X c #E2D6D1",
"<X c #E2DCD4",
"1X c #EADED6",
"2X c #E2DEDA",
"3X c #E9DFDA",
"4X c #DFE1DE",
"5X c #E4E1DD",
"6X c #EAE2DD",
"7X c #E9E4D9",
"8X c #F2E6DE",
"9X c #DFE1E0",
"0X c #E5E4E2",
"qX c #E9E5E3",
"wX c #EAE9E6",
"eX c #E6E7E9",
"rX c #EBECEB",
"tX c #E7E9E8",
"yX c #F4E9E3",
"uX c #EEF0EF",
"iX c #F7F2EE",
"pX c #EEEEF1",
"aX c #EFF0F1",
"sX c #F2F3F4",
"dX c #F5F6F9",
"fX c #F7F8FB",
"gX c #FCFDFE",
"hX c #F0EFF4",
/* pixels */
"!.P././././././.P./././././././.[.(./.[./.[.[.[.[.[.[.(.|.[.[.[.|.(.(.`.(._.(.(.(.(.(.(.(.(.)._.~.~.~.Q.W.W.Q.W.W.E.E.E.E.E.E.K.",
"/./.P./.]./././././.(./.].(./.]./.[./.[.[.[.[.[.(.{.[.~.[.[.|.[.(.`.`.Q.(.[.~.[.`.(.(.(.).(.~.(.~.~.(.Q.Q.W.W.W.Q.E.W.E.E.E.K.E.",
"/././././././.]././.]./.]./.].{.[.[.[.[.[.[.'.[.'.[.'.'.|.(.(.XX`._.`.(.|.(.(.|.|.(.(.`._.(.(.~./.).Q.Q.Q.Q.W.W.Q.W.E.E.E.K.E.K.",
"/././././.]./.(././.]./.]./.{./.[.[.[.[.[.[.[.[.[.{. X!.XX(. X[.|.(.(.`._.|.|.|.(.`.(.(._.~.(.(.(.(.Q.(.Q.Q.Q.Q.W.E.W.E.E.E.E.E.",
"/././.]././.(.].].[.].].[.[.[.[.[.{.[.[.{.{.[.|.[.+X.XXX.X`.(.XX|.|._.|.|._.~.`.(.`.(.(.(.(.(.(.(.(.~.~.~.~.Q.Q.W.W.W.W.E.E.E.E.",
"/.]./.].].].].].[.[.[.].[.[.[.{.{.{.{.{.{.|.|. X{.'.(..X(. X%X X#XXX X|.|.|.XX`.`.`.`.`.XX(.XX[.(.(.(.(.~.(.~.Q.Q.W.W.W.W.E.E.E.",
"].].].].{.].{.(.{.[.{.{.{.{. X{. X{.}.}.|.|.{. X{.{. X X.XOX{.W.V.J.+X#X#X(.|.|.`.`.XX`.`.`.|.[._.(.(.~.(.(.~.Q.Q.Q.W.W.W.W.W.E.",
"].].].].].{.].{.{.{.{.{.{.{.{.{.{.}.|. X|.+X'. X X|.OX[. Xq._ J 5 p _ B.&XXX|.XX[.`.`.XX[.(.|.[.(.(.~.(.(.~.~.~.Q.Q.Q.W.W.W.W.E.",
"}.].}.].{.{.{.{.{.{.{.}.{.{.{. X X X+X X X X+X{.{.OX[.;X$.7 : 7 3 % % 7 #.{.+X`.XXXX(..X`.(.`.|.|.~.|.~.(.~.~.~.~.~.Q.Q.Q.E.W.E.",
"].].].].{.{.{.{.{.}.{.{.OX X}.OX@X X X+X@X X{.+XOX@X-XC.p = 7 7 = = = u = ] [.%X`.XX.XXX`.XX|.(.|.(.|.|.(.(.(.(.~.~.~.~.Q.W.W.W.",
"}.].}.].{.}.{.}.}.}.{.OX X}. X%X X@X X+X+X+X+X@X XOXJ.p 7 6 > @ @ @ , 7 3 3 T E..XXXXX`.XX`.`._.|.|.(.(.'.~.~.~.~.~.~.~.!.W.W.W.",
"].}.].{.{.}.}.}.OX X%X}.OX%XOXOX+X@X+X@X+X+X+X@X%X-Xo., 7 > < 8 t < > # , 4 % o.%X.XXXXXXX_.`.XX|.|.|.(.|.(.'.~.'.~.~.~.!.W.W.W.",
"}.}.}.}.}.}.}.}.%X}.}.%X%X%XOX%X@X@X+X+X%X%X+X+X%XK.r 4 8 L | ..} S e < , , , q L.#X|.XXXXXX`.`.|.|.|.~.~._.~.(.(.Q.(./.Q.Q.Q.W.",
"}.}.}.}.}.}.%X%X%X}.%X}.%X}.%X%X%X%X%X&X%X%XOX$X<X#.1 e O.8.8.6.r.=.~ S 9 1 4 , D.;X[.+XXXoX`.'.|.XXXX|.[._.(.~.(.(.Q.Q.Q.Q.W.W.",
"}.}.}.}.}.%X%X%X}.%X%X%X}.%X%X%X@X%X+X+X#X&X%X%X_.T 4 +.y.y.i.t.5.1.>.=.W e , % w.;X+X+XXX|.|.XX|.XX|.|._.(._.~.(.(.(.)./.!./.Q.",
"}.}.}.}.}.%X}.}.%X%X%X%X%X%X=X%X=X=X=X=X&X&X*X*XW.t W j.y.u.p.h.s.i.t.2.=.! 8 4 G ~.+X|.+XXXoX'.XX|.XX|.|.|.|._.(.(.(.Q.(.).Q.W.",
"=X}.}.=X=X=X}.=X=X}.=X=X@X=X+X=X=X=X+X-X-X+X+X,XD.t ..g.j.c.b.h.i.i.y.8.2.X.Q h 4 J.-X X.X`.oX'.XXXXXX~.|.|.|.|.(.(.~._.~.~.~.~.",
"}.=X}.=X}.=X}.=X=X=X=X=X@X=X=X=X=X=X-X-X-X-X=X2X#.A 0.l.l.n.b.g.u.t.8.2.2.=.X.K e U.-XOXOXoXoXXXXXXXXXXX|.|.|.|.(.'.[.~.~.~.~.Q.",
"=X=X}.=X=X=X=X=X=X=X=X=X=X=X=X=X-X-X-X-X-X=X-X2X#.E l.a.:.:.4.g.i.t.8.<.:.:.O.~ r D.;X+X X$XoX`.oXXXXXXX|.|.|.|.|.~.|.|.(.Q./.Q.",
"=X=X=X=X=X=X=X=X-X=X=X-X=X=X,X=X-X,X-X,X-X,X-X3Xf.+.S.:.F M N *.t.2...F e m }  .h V.;X%X+X.XXXoXXXXXXXXXXXXX|.|.|.(.(.~.(.(.Q.(.",
"=X=X=X=X=X=X=X=X=X=X-X-X=X-X-X-X-X;X-X-X-X-X-X3XV.0.d.e.0.=.*.-.4.>.W 9 8 > 9  .h V.,X X.X$XXXoXoXXXXX'.|. X|.|.`.(.(.(./.(./.).",
"=X=X=X=X=X=X=X=X=X=X-X=X-X-X-X-X;X;X,X;X-X:X;X3XH.w.l.a.r.} P -.g.-.M e A L A ` T D.<XOX$XoXoXoXoXoX#XXXXXXX|.|.{.(.`.(.(.).(./.",
"=X:X=X=X:X=X=X=X-X-X-X-X-X-X-X;X;X;X,X;X2X;X;X3XG.d.A.<.S 0 D :.u.,.n 8 V L G E  .K.*X*XoX$X.XoXoX'.XXXXXX'. X|.`.`.(.(.(.(./.Q.",
"=X=X:X=X=X=X=X:X-X-X-X-X-X:X;X:X:X,X;X2X;X;X,X3X^.l.a...I n I 1.u.t.n 0 8 > V ` %._.%X*XoX%X$XoXoXoXXXXXXXXX|.|.{.(.`.(.(.(./.).",
":X:X=X:X=X=X:X=X=X=X;X;X;X;X2X,X;X:X<X,X4X<X,X8X^.l.c.y.1.&.>.i.h.t.N M V 9 h L 7.$XoX$X$XoX%X%X*X`.`.*X`.OX`.`.`.`./.`./.(.(./.",
":X=X:X=X:X=X;X:X:X;X;X;X;X;X;X;X:X<X:X2X;X5X7X).S.n.b.g.u.u.x.z.h.5.~ D P K L K 7.>X$X%X$X&X#X&XOX*X*X`.%X`.OXOX{.`.`.(.(././.).",
":X=X9X:X:X:X:X:X:X;X:X;X;X;X;X2X:X2X:X<X5X<X8XG.g.T.n.c.x.p.x.p.h.5.^ I | } X. .0.`.>X$X%X#X%X%X$X$X`.*X`.`.`.`.`.`.(.(.(.(.(./.",
"9X:X:X:X:X:X:X:X;X:X;X:X,X;X2X;X:X2X<X5X4X<X8XS.j.T.m.m.m.x.p.M.M.5.*.I } | ....+.f.*X+X$X&X%X%X*XOX%X*X`.%XOX`.{.`.{.`.(.(.(.).",
"9X9X4X:X4X:X:X:X:X:X:X<X:X<X:X2X<X<X5X2X5X5X8XF.j.m.Y.Y.M.x.M.p.p.;.^ Q Q X.&.X. .#.,X*X*XOX%X%X*X*X.X.X%X`.OXOX}.`.`.`././././.",
"9X9X9X9X:X9X4X:X:X:X<X:X<X<X2X<X2X2X3X2X5X5X8XG.z.m.m.m.M.x.p.^ ;.^ N W Q | X.! ! f.5X.X+X*X%X*X*XOX$XOX`.%XOX`.}.`.}./.`./.(./.",
"9X9X9X9X9X9X9X4X4X:X2X2X2X2X2X2X2X2X2X2X7X7X1X^.j.v.v.m.v.x.i.^ *.Z n N W ^ ^ ! W D.5X*X*X*X$X*X%X%X*XOX%X`.}.}.`.].}.].`.(././.",
"9X9X9XeX9X9X9X4X4X4X5X2X2X2X2X2X5X2X2X2X<X5X8X^.A.v.v.A.b.b.p.u.t.! N B D ! W ~ W D.<X%X*X*X+X*X%X*X*X$X%X%X`.`.}.`.`.`././.(./.",
"9XtX9X9X9X0X0X9X0X9X2X0X2X0X2X2X2X0X2X2X2X3X6X'.l.k.b.v.c.k.p.u.1.1.U D I I K } E H.7X,X;X%X*X*X%X%X%X%XOXOXOX{.{.{.{.`././././.",
"eXeXtXtXtX9X0X0X9X0X3X2X2X2X2X2X2X5X:X9X5X3XyX,XR.F.c.k.z.p.c.x.1.1.&.U P K K L  .R.,X$X;X%X*X&X%X%X%X%X$X+X.X{..X`.{.].]./.{./.",
"eXeXtXtXtX9X0X0X0X0X0X2X3X0X2X0X5X5X2X5X5X6XqX7XyXG.l.n.j.t.3.&.&.U D D D S E ` R W.,X,X,X;X%X.X%X%X%X#X+XOXOX X{.{.`./.}./././.",
"eXrXtXtXtXtX0X0X0X0X2X0X0X2X0X0X5X5X5X5X3X0XqX7X8X^.j.c.u.>.&.;.| U N n V K K L Z.,X,X,X&X%X%X;X&X%X%X+XOXOXXX{..X{.{.`.`./.{./.",
"pXeXrXrXeXeXtXqX0X0X0X0X6X0X5X3X:X5X5X5X7XtX5X0XyX).d.l.g.g.u.s.3.&.I N Z S E R Q.1XoX*X-X-X%X*X&X%X%X#X+X+XOXXX{..X{.{.]./././.",
"pXrXrXrXrXeXwXtX0X0X0X0X0X0X0X0X5X5X5X5X5X5X5X7X7X$Xd.l.g.y.u.;.U U D Z C L R ] oX1X,X,X%X-X*X%X&X%X%X#X%X.X X X.X{.{.{.{././.].",
"pXpXrXrXrXrXrXqXeXqX0X0X5X0X0X2X0X0X2X6X4X7X5X0X7X7Xd.g.y.8.i.>.^ U D Z C G A #.7X&X*X,X&X%X%X-X&X%X%X%X+X+X XOX}.{.{.{.{./.]./.",
"aXaXaXrXrXrXeXrXqXqXeX0X0X6X0X0X0X5X5X6X0X4X5X7X7X7Xl.4.j.y.u.t.3.-.~ Z C S T L.7X*X;X&X;X*X=X=X&X%X%X%X.X+X X X{.{.{.].{.{././.",
"sXaXaXpXpXuXtXtXwXtX0XqX0X0X5X0X3X2X5X5X0XqX0X2X5X1XS.6.0.y.c.g.s.1.| S A A o.,X,X-X;X;X-X-X*X*X%X&X%X%X@X@X@X X}.{.{.].[.[.(./.",
"sXsXaXpXuXuXrXtXwXtXwXqX0X0X0X0XqX0X3X5X9X2X0X3XyX$XA.y.:.6.g.g.6.<.~ C V A ] >X2X,X;X&X*X*X-X-X&X%X%X+X@X@X{. X{.{.{.[.[.].]./.",
"dXdXaXaXaXrXrXrXrXwXtXwX0X0XqXqX3X6X5X5X5XqX2X3XyXG.e.k.=...>.,.-.=.S 9 h h h U.5X*X&X*X;X;X*X=X%X%X%X#X@X{.@X X{.{.{.[.[.[././.",
"dXsXsXaXaXaXaXrXwXwXqX0X0X0X0X5X0X0X0X5X5X5X0X2XiXB.r.l.,.! ! ^ ~ K m 9 8 k 7 q.wX;X<X;X=X*X=X;X-X%X%X@X@X+X}. X X{.[.[.[.[.[./.",
"dXdXdXsXaXuXuXuXrXwXwX0X0X0X0X0X0XqX5X5X5X5X0X5XwX%.X.l.4.^ B M M 9 0 8 4 r o #.6X*X;X*X;X;X;X%X%X*X%X%X@X@X{. X{.{.[.[.[.[./.~.",
"fXdXdXsXsXsXuXuXwXrXwXtXtX0X0X5X0X5X5X5X5X5X7X5X7Xo.A d.d.,.! N M 9 > , 6 6 = B.wX,X:X*X;X$X;X=X&X%X%X+X@X@X}.{.{.[.}.[.[./.[.[.",
"fXfXfXdXsXuXuXuXrXwXtXqXqX0X0X0X0X0X0X0X7X5X9X0X7Xo.m +.d.d.y.,.~ M e r 6 % = ] 6X2X-X*X;X;X*X*X*X%X%X%X@X}.@X{.{. X[.[.[./././.",
"gXgXfXdXdXsXaXuXrXwXtXtXtX0X0X0X0X0X5X5X5X7XwXuX/.T A A 4.9.j.j.=.F 8 4 7 7 = : C.*X5X5X*X;X*X=X*X%X%X%X@X@X{. X{.{.[.[.[.[././.",
"gXfXgXdXdXsXhXpXpXpX0XrXwX0X0X5X5X5X5X0X0XqXI.C._ l A r  .0.y.y.,.F 0 4 % % $ + i l @.P.4X;X=X}.%X%X%X%X}.OX{.}.{.{.[.[.[.[././.",
"gXgXfXfXdXhXhXhXpXeXrX0XwXqX0XqX0X5X0X2X0Xq.j g s a j q m +.,.0.<.m > 1 2 $ X X - q $ q $.}.%X4X*X}.%X{.OX%X{. X{.{.[.[.[./././.",
"gXgXgXfXdXdXhXhXpXrXrXwX0X0X0X4X5X5XwXrXN.p x z ; g j t > ! :.<.K > > 1 , $ + . O * - - - Y @.V.].*X%X}. X X{.XX{.{.[.[.[./././.",
"gXgXgXgXfXdXhXhXhXeXwXrX0X0XqX5XwX:XP.@.p g v a i s p h @ A  .X.m > 4 h = $   X X * $ - - q s l T q.!.*X%X].%X{.}.{.[.[.[./././.",
"gXgXgXgXdXdXsXhXrXuXtXtX0XrXrX%XD.%._ s q g x i ; d i i % r R ` A t h a $ .     X O O $ q a q l l l Y f.I.OX{.]. X[.[.[././././.",
"gXgXgXgXfXdXsXhXuXtXuXuXrX}.N.' v v j i q j s s ; ; i : # # % h h 7 @ .         X X + O $ - 5 q q l l l Y f. X{.[.[.[.[./.[.[./.",
"gXgXgXgXfXdXsXhXrXsX}.P.V.' ) ) Y s 5 = ; s s s _ i i & . O   % 7             q X X + $ q a l l z l j l l l N.OX[.[.[.!./.[./.!.",
"gXgXgXgXfXfXsXhXaX:X@.) v c x s l i - i q f p z N.d y & O + . $ %             l q X $ q 5 w s l l l j c z l ' /.[.[.[./.[.!.[./.",
"gXgXgXgXfXdXsXuXsXN.) Y c z c z l - ; q 5 l i g N.) y O O O   ; i             x q . 5 5 5 w l a l l j k J c b B.=X!.[.[.!.!.].!.",
"gXgXgXgXgXsXdXsX!.' v ) z z z z a - ; w 5 s 5 a _ / y & & O o i s             O . + - = w r w w f f l k k c g ] !.[.[.!.[.[.].!.",
"gXgXgXgXgXsXdXuX$.) c v x g j j s * 5 s q a 5 i _ / : y y & o i i   o           . $ $ = a a q w r a g j f k f a C.}.!.!.[.[.!.!.",
"gXgXgXgXgXsXfXI.{ [ z c z s g j i $ q g i a q q / / : & & *   i i O     o     o X . $ 5 w w 3 w w a f g f k p p o.].!.[.!.!.!.!.",
"gXgXgXgXfXdXaX$.[ ) z z z s s j q $ q g p a q q b / y y - * O s s + o & o   . & O + 5 w w w 3 w w w l l f k 5 s ( U.}.!.!.[.!.!.",
"gXgXgXgXfXgXI.[ ' v z j z s a s q * q g s a w 5 b / y y ; $ & * ; + & +   & : - $ - q w w 3 3 w w w a l p g 3 p d $.@X!.!.!.!.!.",
"gXgXgXgXfXrX$.[ ) v j g j p s s - * i s s p w - g ( i ; $ = - . $ O o o o 3 3 5 - 5 q i q = 6 w w a l a p s 2 d d ( E.!.!.!.!.!.",
"gXgXgXgXfXI.[ ' v v j j g a a g * * i s s i w ; g v p ; 5 - * + = + % : : u 3 5 $ - q w 6 = w w w a a a s p @ u h A D.[.!.!.!.!."
};
